<svg width="537" height="177" viewBox="0 0 537 177" fill="none" xmlns="http://www.w3.org/2000/svg">
<path d="M431.534 69.2022H371.964V35.6272C371.964 22.94 382.249 12.6549 394.936 12.6549H511.565C522.664 12.6549 531.929 20.5282 534.071 30.9957C534.376 32.4903 534.537 34.039 534.537 35.6272V152.256C534.537 164.943 524.252 175.228 511.565 175.228H477.99V113.747V109.481L474.973 112.498L425.176 162.295C418.965 168.506 408.895 168.506 402.685 162.295L375.195 134.806C373.815 133.426 373.815 131.188 375.195 129.808L432.784 72.2188L435.8 69.2022H431.534Z" fill="#E6F4EF"/>
<path d="M184.397 67.4303H124.827V33.8553C124.827 21.1681 135.112 10.883 147.799 10.883H264.428C275.528 10.883 284.792 18.7563 286.934 29.2237C287.24 30.7184 287.401 32.267 287.401 33.8553V150.484C287.401 163.171 277.115 173.456 264.428 173.456H230.853V111.976V107.709L227.837 110.726L178.039 160.523C171.829 166.734 161.759 166.734 155.548 160.523L128.058 133.034C126.678 131.654 126.678 129.416 128.058 128.036L185.647 70.4469L188.664 67.4303H184.397Z" fill="#E6F4EF"/>
<g opacity="0.4" clip-path="url(#clip0_4907_6123)">
<path d="M375.2 105.183H372.888L374.524 106.817L401.098 133.393C404.464 136.759 404.464 142.214 401.098 145.58L386.203 160.475C385.455 161.223 384.243 161.223 383.495 160.475L352.18 129.161L350.546 127.525V129.838V167.421C350.546 172.18 346.688 176.038 341.928 176.038H320.863C319.806 176.038 318.948 175.181 318.948 174.123L318.948 129.838V127.525L317.314 129.161L290.738 155.735C287.373 159.101 281.917 159.101 278.551 155.735L263.656 140.84C262.908 140.093 262.908 138.88 263.656 138.133L294.971 106.817L296.605 105.183H294.294H256.71C251.951 105.183 248.093 101.325 248.093 96.5654V75.5003C248.093 74.4427 248.95 73.5853 250.008 73.5853L294.294 73.5853H296.605L294.971 71.9507L268.395 45.3754C265.03 42.0099 265.03 36.5537 268.395 33.1883L283.29 18.293C284.038 17.5452 285.251 17.5452 285.999 18.293L317.314 49.6079L318.948 51.2425V48.9308L318.948 11.3475C318.948 6.58816 322.806 2.72995 327.566 2.72995H348.631C349.689 2.72995 350.546 3.58733 350.546 4.64496V48.9308V51.2425L352.18 49.6078L378.756 23.0324C382.121 19.667 387.577 19.667 390.943 23.0324L405.838 37.9276C406.586 38.6755 406.586 39.888 405.838 40.6359L374.524 71.9507L372.888 73.5853H375.2L412.783 73.5853C417.543 73.5853 421.401 77.4435 421.401 82.2028V103.268C421.401 104.326 420.544 105.183 419.486 105.183H375.2Z" stroke="#00A085" stroke-opacity="0.4" stroke-width="2"/>
</g>
<g opacity="0.4" clip-path="url(#clip1_4907_6123)">
<path d="M128.065 103.41H125.752L127.388 105.045L153.962 131.62C157.328 134.986 157.328 140.442 153.962 143.808L139.067 158.702C138.32 159.45 137.107 159.45 136.36 158.702L105.044 127.388L103.41 125.753V128.065V165.648C103.41 170.408 99.5522 174.266 94.7924 174.266H73.7274C72.6698 174.266 71.8124 173.409 71.8124 172.351L71.8123 128.065V125.753L70.1778 127.388L43.6024 153.963C40.237 157.328 34.7808 157.328 31.4153 153.963L16.5201 139.068C15.7723 138.32 15.7723 137.108 16.5201 136.36L47.8349 105.045L49.4695 103.41H47.1578H9.57457C4.81524 103.41 0.957031 99.5526 0.957031 94.7929V73.7278C0.957031 72.6702 1.81441 71.8129 2.87204 71.8129L47.1578 71.8128H49.4695L47.8349 70.1782L21.2595 43.6029C17.8941 40.2375 17.8941 34.7812 21.2595 31.4158L36.1547 16.5206C36.9026 15.7728 38.1151 15.7728 38.863 16.5206L70.1778 47.8355L71.8124 49.47V47.1583L71.8123 9.57503C71.8123 4.81569 75.6705 0.957489 80.4299 0.957489H101.495C102.553 0.957489 103.41 1.81487 103.41 2.8725V47.1583V49.47L105.044 47.8354L131.62 21.2599C134.986 17.8946 140.441 17.8946 143.807 21.2599L158.702 36.1551C159.45 36.9031 159.45 38.1155 158.702 38.8634L127.388 70.1782L125.752 71.8129H128.065L165.648 71.8128C170.407 71.8128 174.265 75.6711 174.265 80.4303V101.495C174.265 102.553 173.408 103.41 172.35 103.41H128.065Z" stroke="#00A085" stroke-opacity="0.4" stroke-width="2"/>
</g>
<defs>
<clipPath id="clip0_4907_6123">
<rect width="175.223" height="175.223" fill="white" transform="translate(247.136 1.77246)"/>
</clipPath>
<clipPath id="clip1_4907_6123">
<rect width="175.223" height="175.223" fill="white"/>
</clipPath>
</defs>
</svg>
