<svg width="30" height="30" viewBox="0 0 30 30" fill="none" xmlns="http://www.w3.org/2000/svg">
<mask id="mask0_4770_4589" style="mask-type:alpha" maskUnits="userSpaceOnUse" x="0" y="0" width="30" height="30">
<rect width="30" height="30" rx="4.46809" fill="#D9D9D9"/>
</mask>
<g mask="url(#mask0_4770_4589)">
<path d="M23.861 5.76742C24.1999 5.01507 25.2682 5.01507 25.607 5.76743L29.8968 15.2922C30.1752 15.9103 30.3191 16.5803 30.3191 17.2581L30.3191 31.2759C30.3191 33.0385 28.8903 34.4674 27.1276 34.4674H20.1064C19.5776 34.4674 19.1489 34.0387 19.1489 33.51L19.1489 17.2581C19.1489 16.5803 19.2929 15.9102 19.5712 15.2922L23.861 5.76742Z" fill="#00A085"/>
<path d="M25.6067 4.76383C25.2679 5.51618 24.1996 5.51618 23.8608 4.76382L19.5709 -4.76099C19.2926 -5.379 19.1487 -6.04908 19.1487 -6.72689L19.1486 -20.7447C19.1486 -22.5073 20.5775 -23.9362 22.3401 -23.9362L29.3614 -23.9362C29.8902 -23.9362 30.3188 -23.5075 30.3188 -22.9787L30.3188 -6.72689C30.3188 -6.04908 30.1749 -5.379 29.8966 -4.76098L25.6067 4.76383Z" fill="#00A085"/>
<path d="M24.2321 4.39278C24.9844 4.73163 24.9844 5.79991 24.2321 6.13876L14.7073 10.4286C14.0893 10.7069 13.4192 10.8509 12.7414 10.8509L-1.27639 10.8509C-3.03901 10.8509 -4.46789 9.422 -4.46789 7.65938L-4.46789 0.638128C-4.46789 0.109345 -4.03923 -0.319319 -3.51044 -0.319319L12.7414 -0.319335C13.4192 -0.319336 14.0893 -0.175401 14.7073 0.102946L24.2321 4.39278Z" fill="#00A085"/>
<path d="M25.2362 6.13847C24.4838 5.79962 24.4838 4.73134 25.2362 4.39249L34.761 0.102673C35.379 -0.175672 36.0491 -0.319607 36.7269 -0.319608L50.7447 -0.31962C52.5073 -0.319622 53.9362 1.10926 53.9362 2.87187L53.9362 9.89313C53.9362 10.4219 53.5075 10.8506 52.9787 10.8506L36.7269 10.8506C36.0491 10.8506 35.379 10.7067 34.761 10.4283L25.2362 6.13847Z" fill="#00A085"/>
<path d="M23.7617 5.00335C24.5333 4.71096 25.2886 5.46635 24.9963 6.23794L21.2946 16.0064C21.0544 16.6402 20.6823 17.2158 20.2031 17.6951L10.291 27.6071C9.04465 28.8535 7.02391 28.8535 5.77755 27.6071L0.812774 22.6424C0.438868 22.2685 0.438868 21.6622 0.812772 21.2883L12.3045 9.79655C12.7838 9.31726 13.3594 8.94522 13.9932 8.70504L23.7617 5.00335Z" fill="#00A085"/>
<path d="M25.7061 5.5279C24.9345 5.82029 24.1791 5.0649 24.4715 4.29331L28.1732 -5.47511C28.4134 -6.10894 28.7854 -6.68453 29.2647 -7.16381L39.1768 -17.0759C40.4231 -18.3222 42.4439 -18.3222 43.6902 -17.0759L48.655 -12.1111C49.0289 -11.7372 49.0289 -11.131 48.655 -10.7571L37.1632 0.734702C36.684 1.21399 36.1084 1.58603 35.4745 1.82622L25.7061 5.5279Z" fill="#00A085"/>
<path d="M24.9957 4.2934C25.2881 5.06499 24.5327 5.82038 23.7611 5.52799L13.9927 1.82629C13.3588 1.58611 12.7832 1.21407 12.304 0.73479L2.39189 -9.17726C1.14553 -10.4236 1.14553 -12.4444 2.39189 -13.6907L7.35666 -18.6555C7.73057 -19.0294 8.33679 -19.0294 8.7107 -18.6555L20.2025 -7.16374C20.6818 -6.68445 21.0538 -6.10885 21.294 -5.47503L24.9957 4.2934Z" fill="#00A085"/>
<path d="M24.4716 6.23785C24.1792 5.46626 24.9346 4.71087 25.7062 5.00326L35.4746 8.70496C36.1084 8.94514 36.684 9.31718 37.1633 9.79646L47.0754 19.7085C48.3217 20.9549 48.3218 22.9756 47.0754 24.222L42.1106 29.1867C41.7367 29.5606 41.1305 29.5606 40.7566 29.1867L29.2648 17.695C28.7855 17.2157 28.4135 16.6401 28.1733 16.0063L24.4716 6.23785Z" fill="#00A085"/>
<path d="M23.7617 5.00335C24.5333 4.71096 25.2886 5.46635 24.9963 6.23794L21.2946 16.0064C21.0544 16.6402 20.6823 17.2158 20.2031 17.6951L10.291 27.6071C9.04465 28.8535 7.02391 28.8535 5.77755 27.6071L0.812774 22.6424C0.438868 22.2685 0.438868 21.6622 0.812772 21.2883L12.3045 9.79655C12.7838 9.31726 13.3594 8.94522 13.9932 8.70504L23.7617 5.00335Z" fill="#057562"/>
</g>
</svg>
