<svg width="468" height="134" viewBox="0 0 468 134" fill="none" xmlns="http://www.w3.org/2000/svg">
<path d="M370.328 55.0255L371.535 55.0255L370.682 54.172L350.445 33.9352C347.793 31.2831 347.793 26.9831 350.445 24.331L361.788 12.9885C362.447 12.3296 363.515 12.3296 364.174 12.9885L388.02 36.8342L388.873 37.6878L388.873 36.4807L388.873 7.86159C388.873 4.11089 391.914 1.07035 395.664 1.07035L411.705 1.07035C412.637 1.07035 413.392 1.82582 413.392 2.75773L413.393 36.4807L413.393 37.6878L414.246 36.8342L434.483 16.5975C437.135 13.9453 441.435 13.9453 444.087 16.5975L455.43 27.94C456.088 28.5989 456.088 29.6673 455.43 30.3262L431.584 54.172L430.73 55.0255L431.937 55.0255L460.556 55.0255C464.307 55.0255 467.348 58.0661 467.348 61.8168L467.348 77.8574C467.348 78.7893 466.592 79.5448 465.66 79.5448L431.937 79.5448L430.73 79.5448L431.584 80.3984L451.821 100.635C454.473 103.287 454.473 107.587 451.821 110.239L440.478 121.582C439.819 122.241 438.751 122.241 438.092 121.582L414.246 97.7361L413.392 96.8826L413.392 98.0897L413.392 126.709C413.392 130.459 410.352 133.5 406.601 133.5L390.561 133.5C389.629 133.5 388.873 132.745 388.873 131.813L388.873 98.0897L388.873 96.8826L388.02 97.7361L367.783 117.973C365.131 120.625 360.831 120.625 358.179 117.973L346.836 106.63C346.177 105.971 346.177 104.903 346.836 104.244L370.682 80.3984L371.535 79.5448L370.328 79.5448L341.709 79.5448C337.959 79.5448 334.918 76.5043 334.918 72.7536L334.918 56.7129C334.918 55.781 335.673 55.0255 336.605 55.0255L370.328 55.0255Z" stroke="#E6F4EF"/>
<path d="M403.353 67.8843C401.59 68.5523 399.865 66.8265 400.533 65.0637L408.989 42.7469C409.538 41.2989 410.388 39.9839 411.483 38.8889L434.128 16.2439C436.975 13.3965 441.592 13.3965 444.439 16.2439L455.782 27.5864C456.636 28.4406 456.636 29.8256 455.782 30.6798L429.528 56.9338C428.433 58.0287 427.118 58.8787 425.67 59.4274L403.353 67.8843Z" fill="#057562"/>
<path d="M203.119 55.0255L204.326 55.0255L203.473 54.172L183.236 33.9352C180.584 31.2831 180.584 26.9831 183.236 24.331L194.579 12.9885C195.238 12.3296 196.306 12.3296 196.965 12.9885L220.811 36.8342L221.664 37.6878L221.664 36.4807L221.664 7.86159C221.664 4.11089 224.705 1.07035 228.455 1.07035L244.496 1.07035C245.428 1.07035 246.183 1.82582 246.183 2.75773L246.184 36.4807L246.184 37.6878L247.037 36.8342L267.274 16.5975C269.926 13.9453 274.226 13.9453 276.878 16.5975L288.221 27.94C288.879 28.5989 288.879 29.6673 288.221 30.3262L264.375 54.172L263.521 55.0255L264.728 55.0255L293.347 55.0255C297.098 55.0255 300.139 58.0661 300.139 61.8168L300.139 77.8574C300.139 78.7893 299.383 79.5448 298.451 79.5448L264.728 79.5448L263.521 79.5448L264.375 80.3984L284.612 100.635C287.264 103.287 287.264 107.587 284.612 110.239L273.269 121.582C272.61 122.241 271.542 122.241 270.883 121.582L247.037 97.7361L246.183 96.8826L246.183 98.0897L246.184 126.709C246.184 130.459 243.143 133.5 239.392 133.5L223.352 133.5C222.42 133.5 221.664 132.745 221.664 131.813L221.664 98.0897L221.664 96.8826L220.811 97.7361L200.574 117.973C197.922 120.625 193.622 120.625 190.97 117.973L179.627 106.63C178.968 105.971 178.968 104.903 179.627 104.244L203.473 80.3984L204.326 79.5448L203.119 79.5448L174.5 79.5448C170.75 79.5448 167.709 76.5043 167.709 72.7536L167.709 56.7129C167.709 55.781 168.464 55.0255 169.396 55.0255L203.119 55.0255Z" stroke="#E6F4EF"/>
<path d="M236.144 67.8843C234.381 68.5523 232.656 66.8265 233.324 65.0637L241.78 42.7469C242.329 41.2989 243.179 39.9839 244.274 38.8889L266.919 16.2439C269.766 13.3965 274.383 13.3965 277.23 16.2439L288.573 27.5864C289.427 28.4406 289.427 29.8256 288.573 30.6798L262.319 56.9338C261.224 58.0287 259.909 58.8787 258.461 59.4274L236.144 67.8843Z" fill="#057562"/>
<path d="M35.9104 55.0255L37.1175 55.0255L36.2639 54.172L16.0272 33.9352C13.375 31.2831 13.375 26.9831 16.0272 24.331L27.3696 12.9885C28.0286 12.3296 29.097 12.3296 29.7559 12.9885L53.6017 36.8342L54.4553 37.6878L54.4552 36.4807L54.4552 7.86159C54.4552 4.11089 57.4958 1.07035 61.2465 1.07035L77.2871 1.07035C78.219 1.07035 78.9745 1.82582 78.9745 2.75773L78.9745 36.4807L78.9745 37.6878L79.8281 36.8342L100.065 16.5975C102.717 13.9453 107.017 13.9453 109.669 16.5975L121.012 27.9399C121.67 28.5989 121.67 29.6673 121.012 30.3262L97.1658 54.172L96.3123 55.0256L97.5194 55.0255L126.138 55.0255C129.889 55.0255 132.93 58.0661 132.93 61.8168L132.93 77.8574C132.93 78.7893 132.174 79.5448 131.242 79.5448L97.5194 79.5448L96.3123 79.5448L97.1658 80.3984L117.403 100.635C120.055 103.287 120.055 107.587 117.403 110.239L106.06 121.582C105.401 122.241 104.333 122.241 103.674 121.582L79.8281 97.7361L78.9745 96.8826L78.9745 98.0897L78.9745 126.709C78.9745 130.459 75.934 133.5 72.1833 133.5L56.1426 133.5C55.2107 133.5 54.4552 132.745 54.4552 131.813L54.4552 98.0897L54.4552 96.8826L53.6017 97.7361L33.3649 117.973C30.7128 120.625 26.4128 120.625 23.7607 117.973L12.4182 106.63C11.7593 105.971 11.7593 104.903 12.4182 104.244L36.2639 80.3984L37.1175 79.5448L35.9104 79.5448L7.29129 79.5448C3.54059 79.5448 0.500051 76.5043 0.500051 72.7536L0.500053 56.7129C0.500053 55.781 1.25552 55.0255 2.18743 55.0255L35.9104 55.0255Z" stroke="#E6F4EF"/>
<path d="M68.9351 67.8843C67.1723 68.5523 65.4466 66.8265 66.1146 65.0637L74.5714 42.7469C75.1201 41.2989 75.9701 39.9839 77.0651 38.8889L99.71 16.2439C102.557 13.3965 107.174 13.3965 110.021 16.2439L121.364 27.5864C122.218 28.4406 122.218 29.8256 121.364 30.6798L95.1099 56.9338C94.015 58.0287 92.7 58.8787 91.2519 59.4274L68.9351 67.8843Z" fill="#057562"/>
</svg>
