<svg width="80" height="80" viewBox="0 0 80 80" fill="none" xmlns="http://www.w3.org/2000/svg">
<mask id="mask0_4505_5591" style="mask-type:alpha" maskUnits="userSpaceOnUse" x="0" y="0" width="80" height="80">
<rect width="80" height="80" rx="11.9149" fill="#D9D9D9"/>
</mask>
<g mask="url(#mask0_4505_5591)">
<path d="M0 11.9149C0 5.33448 5.33448 0 11.9149 0H68.0851C73.843 0 78.6469 4.08421 79.7579 9.51363C79.9166 10.2893 80 11.0923 80 11.9149V68.0851C80 74.6655 74.6655 80 68.0851 80H51.0638V49.5388L27.0807 73.522C23.7571 76.8456 18.3684 76.8456 15.0448 73.522L1.80542 60.2826C0.808339 59.2855 0.808341 57.6689 1.80542 56.6718L29.541 28.9362H0V11.9149Z" fill="#FFFDF5"/>
<path d="M29.541 28.4362H0.5V11.9149C0.5 5.61062 5.61062 0.5 11.9149 0.5H68.0851C73.6007 0.5 78.2037 4.41249 79.2681 9.61386C79.4201 10.3567 79.5 11.1262 79.5 11.9149V68.0851C79.5 74.3894 74.3894 79.5 68.0851 79.5H51.5638V49.5388V48.3317L50.7103 49.1852L26.7271 73.1684C23.5988 76.2968 18.5267 76.2968 15.3984 73.1684L2.15897 59.929C1.35715 59.1272 1.35716 57.8272 2.15898 57.0254L29.8946 29.2897L30.7481 28.4362H29.541Z" stroke="#00A085" stroke-opacity="0.4"/>
<path d="M63.0734 13.0968C65.1339 12.3113 67.1541 14.3314 66.3686 16.392L56.4447 42.4237C55.8039 44.1047 54.8151 45.6312 53.5431 46.9032L27.0524 73.394C23.7288 76.7176 18.3401 76.7176 15.0165 73.394L1.85887 60.2363C0.86179 59.2392 0.861791 57.6227 1.85887 56.6256L32.5621 25.9223C33.8341 24.6502 35.3607 23.6614 37.0416 23.0206L63.0734 13.0968Z" fill="#FFFDF5"/>
<path d="M15.3701 73.0404L2.21243 59.8828C1.41061 59.081 1.41061 57.7809 2.21243 56.9791L32.9157 26.2758C34.1379 25.0536 35.6046 24.1035 37.2197 23.4878L63.2515 13.564C64.9085 12.9323 66.5331 14.5569 65.9014 16.2139L55.9775 42.2456C55.3618 43.8607 54.4117 45.3274 53.1895 46.5497L26.6988 73.0404C23.5705 76.1688 18.4984 76.1688 15.3701 73.0404Z" stroke="#00A085" stroke-opacity="0.4"/>
</g>
</svg>
