<svg width="37" height="41" viewBox="0 0 37 41" fill="none" xmlns="http://www.w3.org/2000/svg">
<mask id="mask0_4706_5322" style="mask-type:alpha" maskUnits="userSpaceOnUse" x="0" y="0" width="37" height="42">
<rect width="35.3425" height="41.0014" transform="matrix(-1 0 0 1 36.0645 0)" fill="#D9D9D9"/>
</mask>
<g mask="url(#mask0_4706_5322)">
<path d="M19.7768 14.1451L27.3832 6.27547L23.1477 1.89344C21.5678 0.258914 19.0064 0.258914 17.4265 1.89344L2.30264 17.5405C0.92067 18.9703 0.747214 21.1783 1.78389 22.8027C1.93187 23.0346 2.10471 23.2549 2.30264 23.4597L17.4265 39.1068C19.0064 40.7413 21.5678 40.7413 23.1477 39.1068L27.3832 34.7247L19.529 26.5988L18.6901 25.7309H19.8765L32.7915 25.7309C34.3098 25.7309 35.5407 24.4574 35.5407 22.8865L35.5407 15.5104C35.5407 15.2357 35.3254 15.013 35.0599 15.013L20.1243 15.013L18.9378 15.013L19.7768 14.1451Z" stroke="#057562"/>
</g>
</svg>
