<svg width="36" height="41" viewBox="0 0 36 41" fill="none" xmlns="http://www.w3.org/2000/svg">
<mask id="mask0_4706_5319" style="mask-type:alpha" maskUnits="userSpaceOnUse" x="0" y="0" width="36" height="42">
<rect x="0.0644531" width="35.3425" height="41.0014" fill="#D9D9D9"/>
</mask>
<g mask="url(#mask0_4706_5319)">
<path d="M16.3521 14.1451L8.7457 6.27547L12.9812 1.89344C14.5611 0.258914 17.1225 0.258914 18.7024 1.89344L33.8263 17.5405C35.2082 18.9703 35.3817 21.1783 34.345 22.8027C34.197 23.0346 34.0242 23.2549 33.8263 23.4597L18.7024 39.1068C17.1225 40.7413 14.5611 40.7413 12.9812 39.1068L8.7457 34.7247L16.5999 26.5988L17.4388 25.7309H16.2524L3.33745 25.7309C1.81909 25.7309 0.588212 24.4574 0.588213 22.8865L0.588212 15.5104C0.588213 15.2357 0.80346 15.013 1.06898 15.013L16.0047 15.013L17.1911 15.013L16.3521 14.1451Z" stroke="#057562"/>
</g>
</svg>
