<svg width="64" height="64" viewBox="0 0 64 64" fill="none" xmlns="http://www.w3.org/2000/svg">
<path d="M32.3053 22.8381L20.8976 11.4304L27.3597 4.96829C29.8146 2.51339 33.7948 2.51339 36.2497 4.96829L58.4382 27.1568C60.5859 29.3045 60.8549 32.6205 59.2439 35.0604C59.0139 35.4088 58.7454 35.7396 58.4382 36.0468L36.2497 58.2352C33.7948 60.6901 29.8146 60.6901 27.3597 58.2352L20.8976 51.7731L32.6688 40.0019L33.3004 39.3702H32.4071L13.4594 39.3702C11.0379 39.3703 9.07495 37.4073 9.07495 34.9858L9.07494 24.5261C9.07495 23.9428 9.54787 23.4698 10.1312 23.4698L32.0436 23.4698L32.9369 23.4698L32.3053 22.8381Z" fill="#FFFDF5" stroke="#00A085" stroke-width="0.740055"/>
</svg>
