<svg width="29" height="29" viewBox="0 0 29 29" fill="none" xmlns="http://www.w3.org/2000/svg">
<path fill-rule="evenodd" clip-rule="evenodd" d="M2.41667 18.6084L10.3916 18.6084L10.3916 28.275C10.3916 28.6754 10.7162 29 11.1166 29H16.4333C17.768 29 18.85 27.918 18.85 26.5833L18.85 18.6083L28.2747 18.6083C28.6751 18.6083 28.9997 18.2837 28.9997 17.8833L28.9997 12.5667C28.9997 11.232 27.9177 10.15 26.583 10.15L18.8498 10.15L18.8498 0.725C18.8498 0.324594 18.5252 4.998e-07 18.1248 4.64795e-07L12.8081 0C11.4735 -1.16683e-07 10.3915 1.08198 10.3915 2.41667L10.3915 10.15L0.725 10.1501C0.324593 10.1501 2.499e-07 10.4747 2.32394e-07 10.8751L0 16.1917C-5.83386e-08 17.5264 1.08198 18.6084 2.41667 18.6084Z" fill="#FFFDF5"/>
</svg>
