<svg width="45" height="46" viewBox="0 0 45 46" fill="none" xmlns="http://www.w3.org/2000/svg">
<mask id="path-1-inside-1_4706_5626" fill="white">
<path fill-rule="evenodd" clip-rule="evenodd" d="M3.75 29.3751L16.125 29.3751L16.125 44.375C16.125 44.9963 16.6287 45.5 17.25 45.5H25.5C27.5711 45.5 29.25 43.8211 29.25 41.75L29.25 29.375L43.875 29.375C44.4963 29.375 45 28.8713 45 28.25V20C45 17.9289 43.3211 16.25 41.25 16.25L29.25 16.25L29.25 1.625C29.25 1.00368 28.7463 0.5 28.125 0.5H19.875C17.8039 0.5 16.125 2.17893 16.125 4.25L16.125 16.2501L1.125 16.2501C0.503677 16.2501 0 16.7538 0 17.3751V25.6251C0 27.6962 1.67894 29.3751 3.75 29.3751Z"/>
</mask>
<path d="M16.125 29.3751L17.125 29.3751L17.125 28.3751L16.125 28.3751L16.125 29.3751ZM3.75 29.3751L3.75 30.3751H3.75L3.75 29.3751ZM16.125 44.375H17.125H16.125ZM29.25 41.75H30.25H29.25ZM29.25 29.375V28.375H28.25L28.25 29.375L29.25 29.375ZM43.875 29.375V28.375V29.375ZM41.25 16.25V15.25V16.25ZM29.25 16.25L28.25 16.25L28.25 17.25H29.25V16.25ZM29.25 1.625H28.25V1.625L29.25 1.625ZM16.125 4.25H15.125V4.25L16.125 4.25ZM16.125 16.2501L16.125 17.2501H17.125L17.125 16.2501L16.125 16.2501ZM1.125 16.2501V17.2501L1.125 17.2501L1.125 16.2501ZM16.125 28.3751L3.75 28.3751L3.75 30.3751L16.125 30.3751L16.125 28.3751ZM17.125 44.375L17.125 29.3751L15.125 29.3751L15.125 44.375H17.125ZM17.25 44.5C17.181 44.5 17.125 44.444 17.125 44.375H15.125C15.125 45.5486 16.0764 46.5 17.25 46.5V44.5ZM25.5 44.5H17.25V46.5H25.5V44.5ZM28.25 41.75C28.25 43.2688 27.0188 44.5 25.5 44.5V46.5C28.1234 46.5 30.25 44.3733 30.25 41.75H28.25ZM28.25 29.375L28.25 41.75H30.25L30.25 29.375L28.25 29.375ZM43.875 28.375L29.25 28.375V30.375L43.875 30.375V28.375ZM44 28.25C44 28.319 43.944 28.375 43.875 28.375V30.375C45.0486 30.375 46 29.4236 46 28.25H44ZM44 20V28.25H46V20H44ZM41.25 17.25C42.7688 17.25 44 18.4812 44 20H46C46 17.3767 43.8733 15.25 41.25 15.25V17.25ZM29.25 17.25L41.25 17.25V15.25L29.25 15.25V17.25ZM28.25 1.625L28.25 16.25L30.25 16.25L30.25 1.625L28.25 1.625ZM28.125 1.5C28.194 1.5 28.25 1.55596 28.25 1.625H30.25C30.25 0.451392 29.2986 -0.5 28.125 -0.5V1.5ZM19.875 1.5H28.125V-0.5H19.875V1.5ZM17.125 4.25C17.125 2.73122 18.3562 1.5 19.875 1.5V-0.5C17.2517 -0.5 15.125 1.62665 15.125 4.25H17.125ZM17.125 16.2501L17.125 4.25L15.125 4.25L15.125 16.2501L17.125 16.2501ZM1.125 17.2501L16.125 17.2501L16.125 15.2501L1.125 15.2501L1.125 17.2501ZM1 17.3751C1 17.3061 1.05596 17.2501 1.125 17.2501V15.2501C-0.0486096 15.2501 -1 16.2015 -1 17.3751H1ZM1 25.6251V17.3751H-1V25.6251H1ZM3.75 28.3751C2.23122 28.3751 1 27.1439 1 25.6251H-1C-1 28.2484 1.12665 30.3751 3.75 30.3751L3.75 28.3751Z" fill="#00A085" mask="url(#path-1-inside-1_4706_5626)"/>
</svg>
