<svg width="64" height="64" viewBox="0 0 64 64" fill="none" xmlns="http://www.w3.org/2000/svg">
<path d="M31.101 22.8381L42.5087 11.4304L36.0466 4.96829C33.5917 2.51339 29.6115 2.51339 27.1566 4.96829L4.96809 27.1568C2.82036 29.3045 2.55136 32.6205 4.1623 35.0604C4.39235 35.4088 4.66088 35.7396 4.96809 36.0468L27.1566 58.2352C29.6115 60.6901 33.5917 60.6901 36.0466 58.2352L42.5087 51.7731L30.7375 40.0019L30.1058 39.3702H30.9991L49.9469 39.3702C52.3683 39.3703 54.3313 37.4073 54.3313 34.9858L54.3313 24.5261C54.3313 23.9428 53.8584 23.4698 53.275 23.4698L31.3626 23.4698L30.4693 23.4698L31.101 22.8381Z" fill="#FFFDF5" stroke="#00A085" stroke-width="0.740055"/>
</svg>
