<svg width="442" height="442" viewBox="0 0 442 442" fill="none" xmlns="http://www.w3.org/2000/svg">
<g opacity="0.3">
<path d="M323.043 262.768H321.836L322.69 263.621L389.726 330.658C398.963 339.895 398.963 354.871 389.726 364.108L352.153 401.681C349.518 404.316 345.247 404.316 342.613 401.681L263.621 322.69L262.768 321.836V323.043L262.768 417.847C262.768 430.91 252.178 441.5 239.115 441.5H185.978C182.253 441.5 179.232 438.48 179.232 434.754L179.232 323.043V321.836L178.379 322.69L111.342 389.726C102.105 398.963 87.1291 398.963 77.892 389.726L40.3189 352.153C37.6844 349.518 37.6844 345.247 40.3189 342.613L119.31 263.621L120.164 262.768H118.957L24.153 262.768C11.0898 262.768 0.5 252.178 0.5 239.115V185.978C0.5 182.253 3.52024 179.232 7.24589 179.232L118.957 179.232H120.164L119.31 178.379L52.2739 111.342C43.0368 102.105 43.0368 87.1291 52.2739 77.892L89.8471 40.3189C92.4815 37.6844 96.7527 37.6844 99.3872 40.3189L178.379 119.31L179.232 120.164V118.957L179.232 24.153C179.232 11.0898 189.822 0.499999 202.885 0.5L256.022 0.500005C259.747 0.500005 262.768 3.52024 262.768 7.2459L262.768 118.957V120.164L263.621 119.31L330.658 52.2739C339.895 43.0368 354.871 43.0368 364.108 52.2739L401.681 89.8471C404.316 92.4815 404.316 96.7527 401.681 99.3872L322.69 178.379L321.836 179.232H323.043L417.847 179.232C430.91 179.232 441.5 189.822 441.5 202.885V256.022C441.5 259.747 438.48 262.768 434.754 262.768L323.043 262.768Z" stroke="#00A085"/>
<path d="M213.819 219.483C219.255 217.423 224.577 222.745 222.517 228.181L194.503 302.108C192.71 306.839 189.934 311.135 186.356 314.712L111.343 389.726C102.106 398.963 87.1293 398.963 77.8922 389.726L40.3191 352.153C37.6846 349.518 37.6847 345.247 40.3191 342.613L127.288 255.643C130.865 252.066 135.161 249.29 139.892 247.497L213.819 219.483Z" stroke="#00A085"/>
</g>
</svg>
