<svg width="159" height="159" viewBox="0 0 159 159" fill="none" xmlns="http://www.w3.org/2000/svg">
<g opacity="0.3">
<path d="M116.241 94.2049H115.034L115.887 95.0583L139.983 119.173C143.179 122.371 143.179 127.556 139.983 130.754L126.477 144.27C125.656 145.092 124.323 145.092 123.501 144.27L95.1078 115.854L94.2541 115V116.208L94.2542 150.311C94.2542 154.834 90.5907 158.5 86.0723 158.5H66.9723C65.8104 158.5 64.8678 157.557 64.8678 156.393L64.8677 116.208V115L64.014 115.854L39.9177 139.969C36.7225 143.167 31.5423 143.167 28.3471 139.969L14.8414 126.453C14.0193 125.631 14.0193 124.297 14.8414 123.474L43.235 95.0583L44.0878 94.2049H42.8813L8.80392 94.2049C4.28557 94.2049 0.62207 90.5391 0.62207 86.0164V66.9017C0.62207 65.7379 1.56467 64.7951 2.72662 64.7951L42.8813 64.7951H44.0878L43.235 63.9417L19.1386 39.8268C15.9432 36.629 15.9432 31.4441 19.1386 28.2462L32.6444 14.7301C33.4662 13.9076 34.7985 13.9076 35.6204 14.7301L64.0141 43.1456L64.8678 43.9999V42.7922L64.8677 8.68853C64.8677 4.16576 68.5312 0.5 73.0496 0.5L92.1496 0.500002C93.3115 0.500002 94.2541 1.44278 94.2541 2.60656L94.2542 42.7921V43.9999L95.1078 43.1456L119.204 19.0306C122.399 15.833 127.58 15.833 130.775 19.0306L144.281 32.5468C145.103 33.3695 145.103 34.7035 144.281 35.5262L115.887 63.9417L115.034 64.7951H116.241L150.318 64.7951C154.836 64.7951 158.5 68.4609 158.5 72.9836V92.0983C158.5 93.2621 157.557 94.2049 156.395 94.2049L116.241 94.2049Z" stroke="#FFFDF5"/>
<path d="M76.3024 78.1773C78.4022 77.381 80.4579 79.4383 79.6622 81.5397L69.5886 108.144C68.9349 109.87 67.9225 111.437 66.6182 112.743L39.644 139.738C36.2522 143.132 30.753 143.132 27.3612 139.738L13.8503 126.216C12.8328 125.198 12.8328 123.547 13.8503 122.529L45.1235 91.2314C46.4278 89.9261 47.9942 88.9128 49.7191 88.2587L76.3024 78.1773Z" fill="#057562"/>
</g>
</svg>
