<svg width="134" height="134" viewBox="0 0 134 134" fill="none" xmlns="http://www.w3.org/2000/svg">
<path d="M35.9104 55.0255L37.1175 55.0255L36.2639 54.172L16.0272 33.9352C13.375 31.2831 13.375 26.9831 16.0272 24.331L27.3696 12.9885C28.0286 12.3296 29.097 12.3296 29.7559 12.9885L53.6017 36.8342L54.4553 37.6878L54.4552 36.4807L54.4552 7.86159C54.4552 4.11089 57.4958 1.07035 61.2465 1.07035L77.2871 1.07035C78.219 1.07035 78.9745 1.82582 78.9745 2.75773L78.9745 36.4807L78.9745 37.6878L79.8281 36.8342L100.065 16.5975C102.717 13.9453 107.017 13.9453 109.669 16.5975L121.012 27.9399C121.67 28.5989 121.67 29.6673 121.012 30.3262L97.1658 54.172L96.3123 55.0256L97.5194 55.0255L126.138 55.0255C129.889 55.0255 132.93 58.0661 132.93 61.8168L132.93 77.8574C132.93 78.7893 132.174 79.5448 131.242 79.5448L97.5194 79.5448L96.3123 79.5448L97.1658 80.3984L117.403 100.635C120.055 103.287 120.055 107.587 117.403 110.239L106.06 121.582C105.401 122.241 104.333 122.241 103.674 121.582L79.8281 97.7361L78.9745 96.8826L78.9745 98.0897L78.9745 126.709C78.9745 130.459 75.934 133.5 72.1833 133.5L56.1426 133.5C55.2107 133.5 54.4552 132.745 54.4552 131.813L54.4552 98.0897L54.4552 96.8826L53.6017 97.7361L33.3649 117.973C30.7128 120.625 26.4128 120.625 23.7607 117.973L12.4182 106.63C11.7593 105.971 11.7593 104.903 12.4182 104.244L36.2639 80.3984L37.1175 79.5448L35.9104 79.5448L7.29129 79.5448C3.54059 79.5448 0.500051 76.5043 0.500051 72.7536L0.500053 56.7129C0.500053 55.781 1.25552 55.0255 2.18743 55.0255L35.9104 55.0255Z" stroke="#E6F4EF"/>
<path d="M68.9351 67.8843C67.1723 68.5523 65.4466 66.8265 66.1146 65.0637L74.5714 42.7469C75.1201 41.2989 75.9701 39.9839 77.0651 38.8889L99.71 16.2439C102.557 13.3965 107.174 13.3965 110.021 16.2439L121.364 27.5864C122.218 28.4406 122.218 29.8256 121.364 30.6798L95.1099 56.9338C94.015 58.0287 92.7 58.8787 91.2519 59.4274L68.9351 67.8843Z" fill="#057562"/>
</svg>
