<svg width="139" height="32" viewBox="0 0 139 32" fill="none" xmlns="http://www.w3.org/2000/svg">
<path d="M0.705078 29.6658V12.6433H17.7276V2.43359H44.9426V29.6669H0.705078V29.6658Z" fill="#9F9F9F"/>
<path d="M9.96047 24.2856H9.59284L7.84824 16.4623H4.59766V25.9377H6.28744V18.1144H6.65507L8.34485 25.9377H11.2095L12.9359 18.1144H13.3035V25.9377H14.9933V16.4623H11.7427L9.96047 24.2856ZM27.112 25.9377H33.0434V24.2845H28.8383V21.9154H32.4555V20.3374H28.8383V18.1155H33.0434V16.4623H27.112V25.9377ZM21.0526 24.5242C19.1242 24.5242 18.2245 23.0731 18.2245 21.2005C18.2245 19.328 19.1242 17.8769 21.0526 17.8769C22.9811 17.8769 23.8808 19.328 23.8808 21.2005C23.8808 23.0731 22.9811 24.5242 21.0526 24.5242ZM21.0526 16.2236C18.1514 16.2236 16.4616 18.2251 16.4616 21.1629C16.4616 24.1007 18.1514 26.1764 21.0526 26.1764C23.9539 26.1764 25.6437 24.1018 25.6437 21.1629C25.6437 18.2251 23.9539 16.2236 21.0526 16.2236ZM34.2377 25.9377H36.0737L38.13 22.1916L40.3336 25.9377H42.1696L39.2318 20.9791L41.9868 16.4612H40.1509L38.2224 19.8397L36.2575 16.4612H34.4215L37.0658 20.9232L34.2377 25.9377Z" fill="#213C3E"/>
<path d="M49.4482 2.46484H50.6704V5.48001H53.9887V2.46484H55.2109V9.58946H53.9887V6.57321H50.6704V9.58946H49.4482V2.46484Z" fill="#9F9F9F"/>
<path d="M61.231 7.84593H58.0664L57.3957 9.58946H56.124L58.9457 2.46484H60.4216L63.1895 9.58946H61.9071L61.231 7.84593ZM60.8086 6.75273L59.6455 3.74186L58.4878 6.75273H60.8086Z" fill="#9F9F9F"/>
<path d="M69.7185 11.0804V9.58946H64.1289V2.46484H65.3511V8.50163H68.5909V2.46484H69.8077V8.50163H70.8902L70.8999 11.0804H69.7185Z" fill="#9F9F9F"/>
<path d="M77.9692 2.46484V9.58946H76.7524V4.04929L73.5179 9.58946H71.9883V2.46484H73.2105V7.98459L76.4299 2.46484H77.9692Z" fill="#9F9F9F"/>
<path d="M82.7213 2.36555C84.7035 2.34082 86.1547 3.78123 86.1342 6.02675C86.1536 8.27227 84.7035 9.71267 82.7213 9.68795C80.7338 9.71267 79.2783 8.27227 79.3031 6.02675C79.2773 3.78123 80.7338 2.34082 82.7213 2.36555ZM82.7708 8.60012C84.0671 8.60012 84.9174 7.62624 84.9174 6.02675C84.9174 4.42726 84.0682 3.45337 82.7708 3.45337H82.6708C81.3745 3.45337 80.5242 4.42726 80.5242 6.02675C80.5242 7.62624 81.3734 8.60012 82.6708 8.60012H82.7708Z" fill="#9F9F9F"/>
<path d="M87.4727 2.46484H88.6948V5.48001H92.0131V2.46484H93.2353V9.58946H92.0131V6.57321H88.6948V9.58946H87.4727V2.46484Z" fill="#9F9F9F"/>
<path d="M99.2544 7.84593H96.0899L95.4191 9.58946H94.1475L96.9691 2.46484H98.445L101.213 9.58946H99.9306L99.2544 7.84593ZM98.832 6.75273L97.6689 3.74186L96.5112 6.75273H98.832Z" fill="#9F9F9F"/>
<path d="M101.443 8.46733L101.945 8.46196C102.516 8.44153 102.775 8.25342 102.834 7.4827C102.865 7.15485 102.889 6.698 102.904 6.11109C102.924 5.52526 102.934 4.94372 102.934 4.37186V2.46387H107.962V9.58848H106.74V3.55814H104.106V4.38261C104.106 4.919 104.091 5.56503 104.066 6.3207C104.042 7.07638 104.011 7.63211 103.977 7.99007C103.933 8.47163 103.759 8.85968 103.465 9.15314C103.172 9.44659 102.71 9.59063 102.079 9.59063H101.442V8.46733H101.443Z" fill="#9F9F9F"/>
<path d="M112.757 9.58946H109.701V2.46484H110.923V5.13819H112.746C114.336 5.13819 115.092 6.02715 115.092 7.30954C115.103 8.46723 114.352 9.60988 112.757 9.58946ZM112.613 6.19591H110.923V8.50163H112.672C113.442 8.50163 113.87 8.05016 113.87 7.33964C113.871 6.58826 113.453 6.19591 112.613 6.19591Z" fill="#9F9F9F"/>
<path d="M116.281 2.46484H117.503V5.48001H120.823V2.46484H122.045V9.58946H120.823V6.57321H117.503V9.58946H116.281V2.46484Z" fill="#9F9F9F"/>
<path d="M126.842 9.58946H123.787V2.46484H125.009V5.13819H126.832C128.422 5.13819 129.178 6.02715 129.178 7.30954C129.188 8.46723 128.437 9.60988 126.842 9.58946ZM126.698 6.19591H125.009V8.50163H126.758C127.528 8.50163 127.956 8.05016 127.956 7.33964C127.955 6.58826 127.538 6.19591 126.698 6.19591ZM131.24 2.46484V9.58946H130.017V2.46484H131.24Z" fill="#9F9F9F"/>
<path d="M138.963 2.46504V9.58965H137.745V4.04948L134.51 9.58965H132.979V2.46504H134.202V7.98479L137.421 2.46504H138.963ZM135.137 0.541992C135.181 0.939715 135.474 1.14288 135.927 1.14288C136.384 1.14288 136.692 0.93864 136.736 0.541992H137.73C137.715 1.44171 137.074 1.93295 135.926 1.93295C134.778 1.93295 134.157 1.44063 134.143 0.541992H135.137Z" fill="#9F9F9F"/>
<path d="M49.4482 12.5119H52.5688C53.9103 12.4969 54.8691 13.3471 54.854 14.7177C54.8691 16.0893 53.9103 16.9385 52.5688 16.9288H50.6715V19.6365H49.4493V12.5119H49.4482ZM52.414 15.8356C53.204 15.8356 53.6362 15.4185 53.6362 14.7177C53.6362 14.0168 53.204 13.6051 52.414 13.6051H50.6704V15.8367H52.414V15.8356Z" fill="#9F9F9F"/>
<path d="M59.8091 17.8928H56.6445L55.9738 19.6363H54.7021L57.5238 12.5117H58.9997L61.7676 19.6363H60.4863L59.8091 17.8928ZM59.3867 16.7996L58.2247 13.7887L57.067 16.7996H59.3867Z" fill="#9F9F9F"/>
<path d="M65.4847 12.4134C67.1745 12.3983 68.3364 13.4313 68.416 14.8126H67.1938C67.1293 14.4052 66.9455 14.087 66.652 13.8538C66.3586 13.6205 65.991 13.5012 65.5395 13.5012H65.4352C64.1539 13.4819 63.3036 14.5589 63.3187 16.0746C63.3036 17.5902 64.1539 18.6684 65.4352 18.648H65.5395C65.992 18.648 66.364 18.534 66.6574 18.305C66.9509 18.0718 67.1293 17.7536 67.1938 17.3408H68.416C68.3311 18.7468 67.1788 19.7551 65.4847 19.7358C63.3886 19.7551 62.0814 18.2148 62.1008 16.0746C62.0825 13.943 63.3886 12.3887 65.4847 12.4134Z" fill="#9F9F9F"/>
<path d="M73.6364 17.0286H71.3403C70.0235 17.0286 69.4173 16.5362 69.413 15.4688L69.4033 12.5128H70.6255L70.6309 14.9228C70.6309 15.6785 70.8738 15.9418 71.709 15.9418H73.6375V12.5117H74.8596V19.6363H73.6375V17.0286H73.6364Z" fill="#9F9F9F"/>
<path d="M76.5986 12.5117H81.9045V13.6049H77.8208V15.4334H81.2939V16.5266H77.8208V18.5485H82.0044V19.6363H76.5986V12.5117Z" fill="#9F9F9F"/>
<path d="M85.0959 13.6049H82.5967V12.5117H88.8173V13.6049H86.3127V19.6363H85.0959V13.6049Z" fill="#9F9F9F"/>
<path d="M89.8682 12.5117H91.0904V15.528H94.4097V12.5117H95.6319V19.6363H94.4097V16.6201H91.0904V19.6363H89.8682V12.5117Z" fill="#9F9F9F"/>
<path d="M100.429 19.6363H97.374V12.5117H98.5962V15.1851H100.419C102.009 15.1851 102.765 16.0751 102.765 17.3564C102.773 18.5141 102.023 19.6568 100.429 19.6363ZM100.285 16.2428H98.5962V18.5485H100.345C101.115 18.5485 101.543 18.096 101.543 17.3854C101.542 16.6362 101.124 16.2428 100.285 16.2428ZM104.825 12.5117V19.6363H103.603V12.5117H104.825Z" fill="#9F9F9F"/>
<path d="M112.548 12.5119V19.6365H111.332V14.0974L108.097 19.6365H106.566V12.5119H107.789V18.0317L111.008 12.5119H112.548ZM108.723 10.5889C108.768 10.9866 109.06 11.1898 109.513 11.1898C109.97 11.1898 110.278 10.9866 110.322 10.5889H111.317C111.301 11.4886 110.661 11.9798 109.513 11.9798C108.365 11.9798 107.745 11.4875 107.729 10.5889H108.723Z" fill="#9F9F9F"/>
<path d="M56.2853 28.5972V31.176H55.0976V29.6861H49.9304V31.176H48.7383V28.5972L49.2553 28.5876C49.7724 28.5822 50.0207 28.3145 50.0798 27.7534C50.1142 27.4503 50.1389 27.0225 50.154 26.4818C50.169 25.94 50.1787 25.2252 50.1841 24.3448L50.1894 22.5615H55.2319V28.5983H56.2853V28.5972ZM54.0151 23.6536H51.3622V24.3588C51.3622 24.9844 51.3568 25.6455 51.3428 26.3463C51.3278 27.0418 51.3084 27.5191 51.2783 27.7824C51.2386 28.1651 51.1246 28.4328 50.9408 28.5972H54.0162V23.6536H54.0151Z" fill="#9F9F9F"/>
<path d="M57.4053 22.5596H62.7111V23.6528H58.6275V25.4812H62.1006V26.5744H58.6275V28.5964H62.8111V29.6842H57.4053V22.5596Z" fill="#9F9F9F"/>
<path d="M69.7983 22.5596V29.6842H68.5815V23.6528H65.3169V29.6842H64.0947V22.5596H69.7983Z" fill="#9F9F9F"/>
<path d="M74.5514 22.4613C76.5336 22.4365 77.9847 23.8769 77.9643 26.1225C77.9836 28.368 76.5336 29.8095 74.5514 29.7847C72.5638 29.8095 71.1084 28.369 71.1331 26.1225C71.1084 23.8769 72.5638 22.4365 74.5514 22.4613ZM74.6008 28.6969C75.8972 28.6969 76.7475 27.723 76.7475 26.1235C76.7475 24.524 75.8983 23.5502 74.6008 23.5502H74.5009C73.2045 23.5502 72.3542 24.524 72.3542 26.1235C72.3542 27.723 73.2034 28.6969 74.5009 28.6969H74.6008Z" fill="#9F9F9F"/>
<path d="M81.7572 29.7844C79.9535 29.7844 78.9753 28.9449 78.8506 27.3798H80.0782C80.2125 28.2688 80.7543 28.6966 81.7722 28.6966C82.7665 28.6966 83.2728 28.3333 83.2728 27.6335C83.2728 26.9832 82.7956 26.6349 81.8969 26.6349H80.9284V25.5406H81.8722C82.6924 25.5406 83.1686 25.1579 83.1686 24.5173C83.1686 23.9164 82.6569 23.5337 81.797 23.5337C80.7683 23.5337 80.2566 24.0357 80.1427 24.8849H78.9054C78.9355 24.4818 79.0548 24.1002 79.2687 23.7326C79.4826 23.3596 79.7955 23.0564 80.2179 22.8189C80.6403 22.5803 81.1574 22.4609 81.7776 22.4609C83.4029 22.4609 84.3865 23.251 84.3865 24.4882C84.3865 25.2235 83.9586 25.8298 83.1492 26.0834C83.9834 26.2673 84.4907 26.809 84.4907 27.6883C84.5047 28.9341 83.4556 29.7995 81.7572 29.7844Z" fill="#9F9F9F"/>
<path d="M91.8442 22.5596V29.6842H90.6274V24.144L87.3929 29.6842H85.8633V22.5596H87.0855V28.0793L90.3049 22.5596H91.8442Z" fill="#9F9F9F"/>
<path d="M95.3937 23.6528H92.8945V22.5596H99.1151V23.6528H96.6116V29.6842H95.3937V23.6528Z" fill="#9F9F9F"/>
<path d="M103.598 27.9407H100.434L99.7628 29.6842H98.4912L101.313 22.5596H102.789L105.557 29.6842H104.275L103.598 27.9407ZM103.176 26.8475L102.013 23.8366L100.855 26.8475H103.176Z" fill="#9F9F9F"/>
<path d="M106.497 22.5598H109.618C110.959 22.5447 111.918 23.395 111.903 24.7655C111.918 26.1371 110.959 26.9863 109.618 26.9766H107.719V29.6844H106.497V22.5598ZM109.463 25.8834C110.253 25.8834 110.685 25.4664 110.685 24.7655C110.685 24.0647 110.253 23.653 109.463 23.653H107.719V25.8834H109.463Z" fill="#9F9F9F"/>
<path d="M119.078 22.5596V29.6842H117.861V24.144L114.626 29.6842H113.097V22.5596H114.319V28.0793L117.538 22.5596H119.078Z" fill="#9F9F9F"/>
<path d="M126.801 22.5598V29.6844H125.584V24.1442L122.35 29.6844H120.82V22.5598H122.043V28.0795L125.262 22.5598H126.801ZM122.976 20.6367C123.021 21.0344 123.313 21.2376 123.766 21.2376C124.222 21.2376 124.531 21.0334 124.575 20.6367H125.569C125.554 21.5364 124.914 22.0277 123.766 22.0277C122.618 22.0277 121.997 21.5354 121.982 20.6367H122.976Z" fill="#9F9F9F"/>
</svg>
