<svg width="95" height="28" viewBox="0 0 95 28" fill="none" xmlns="http://www.w3.org/2000/svg">
<path d="M81.8044 16.9445L82.6025 17.0509C82.0173 19.2855 78.3993 18.4874 78.7185 16.306C79.0377 14.1246 81.7512 13.3265 82.6025 15.2951L81.8044 15.6143C81.7037 15.3291 81.4965 15.094 81.2262 14.9582C80.9559 14.8224 80.6436 14.7966 80.3546 14.886C80.0657 14.9754 79.8226 15.1732 79.6763 15.438C79.53 15.7027 79.4918 16.0138 79.5698 16.306C79.357 17.5829 81.3788 18.3278 81.8044 16.9445ZM52.7008 23.0099C53.2329 22.9567 54.5098 23.2228 54.4566 22.4247C54.4034 21.6266 53.2329 21.8926 52.7008 21.8394V23.0099ZM51.9027 23.7016V19.658H55.0951V20.3496H52.7008V21.1477H53.8713C55.7867 20.9881 55.7335 23.8612 53.8713 23.7016H51.9027ZM55.7868 23.7016V19.658H56.638V23.0099H56.7445L57.8618 19.658H59.4048V23.7016H58.5535V20.3496H58.447L57.3297 23.7016H55.7868ZM60.9477 21.733C61.5862 21.733 62.7567 21.8926 62.7035 21.0413C62.6503 20.19 61.533 20.4029 60.9477 20.3496V21.733ZM60.1496 23.7016V19.658H61.9586C64.1933 19.7112 64.2465 22.8503 60.9477 22.3715V23.7016H60.1496ZM63.5548 23.7016L64.885 21.5734L63.5548 19.658H64.5657L65.5766 21.2542H65.8959V19.658H66.694V21.2542H67.0664L68.0241 19.658H69.035L67.7049 21.5734L69.0882 23.7016H68.1305L67.0664 21.9458H66.694V23.7016H65.8959V21.9458H65.5766L64.5125 23.7016H63.5548ZM70.6312 21.999H71.9081L71.3761 20.3496H71.1633L70.6312 21.999ZM69.2478 23.7016L70.6844 19.658H71.9081L73.3447 23.7016H72.4934L72.121 22.6907H70.4184L70.0459 23.7016H69.2478ZM51.8495 18.3278V14.2842H53.4457L54.1906 17.6361H54.297L54.9887 14.2842H56.5316V18.3278H55.7335V14.9759H55.6271L54.9355 18.3278H53.5521L52.8072 14.9759H52.7008V18.3278H51.8495ZM59.2451 17.6894C61.0009 17.7426 60.9477 14.8162 59.1919 14.8694C57.4361 14.9226 57.4893 17.7426 59.2451 17.6894ZM59.2451 18.381C56.372 18.4874 56.372 14.0714 59.2451 14.1778C62.1183 14.2842 62.065 18.4874 59.2451 18.381ZM64.885 16.9445L65.7363 17.0509C65.151 19.2855 61.533 18.4874 61.8522 16.306C62.1715 14.1246 64.885 13.3265 65.6831 15.2951L64.885 15.6143C64.3529 14.2842 62.4907 14.9759 62.7035 16.306C62.9163 17.6361 64.4593 18.3278 64.885 16.9445ZM66.3215 18.3278V14.2842H67.1728V15.8271H67.5985L68.9286 14.2842H69.9395L68.3433 16.1464L70.0459 18.3278H69.035L67.5985 16.5188H67.1728V18.3278H66.3215ZM72.1742 17.6894C73.93 17.7426 73.8768 14.8162 72.121 14.8694C70.3652 14.9226 70.4184 17.7426 72.1742 17.6894ZM72.1742 18.381C69.3543 18.4874 69.3011 14.0714 72.1742 14.1778C75.0473 14.2842 74.9941 18.4874 72.1742 18.381ZM75.6858 15.9336C76.1646 15.8804 77.3884 16.1464 77.3884 15.4547C77.3884 14.763 76.1646 15.0291 75.6858 14.9759V15.9336ZM75.6858 17.6361C76.1646 17.5297 77.4948 17.9022 77.4948 17.1041C77.4948 16.306 76.1646 16.6252 75.6858 16.572V17.6361ZM74.8877 18.3278V14.2842H76.8563C78.1864 14.0714 78.6653 15.8271 77.4948 16.2528C78.8249 16.6252 78.2396 18.4874 76.9095 18.3278H74.8877ZM83.241 18.3278V14.2842H84.0923V15.8271H84.518L85.8481 14.2842H86.859L85.2096 16.1464L86.9122 18.3278H85.9013L84.518 16.5188H84.0923V18.3278H83.241ZM88.4552 16.572H89.7321L89.2001 14.9759H89.0405L88.4552 16.572ZM87.0718 18.3278L88.5084 14.2842H89.7321L91.2219 18.3278H90.3174L89.9982 17.2637H88.2424L87.8699 18.3278H87.0718ZM94.2014 16.0932V14.9759C93.6694 15.0291 92.4456 14.7098 92.4988 15.5079C92.552 16.306 93.6694 16.04 94.2014 16.0932ZM91.5943 18.3278C91.754 17.7426 91.6475 16.6784 92.3924 16.4656C91.0623 15.8804 91.754 14.1246 93.1373 14.2842H94.9995V18.3278H94.2014V16.7849C92.3924 16.6784 92.7117 16.8381 92.4456 18.3278H91.5943ZM0.292969 27.426V10.4533H18.649V0.291016H47.9123V27.426H0.292969Z" fill="#9F9F9F"/>
<path d="M10.2414 22.0527H9.86892L8.00671 14.2846H4.49512V23.702H6.30412V15.934H6.67656L8.53877 23.702H11.6247L13.4869 15.934H13.8594V23.702H15.6684V14.2846H12.1568L10.2414 22.0527ZM28.7038 23.702H35.1417V22.0527H30.566V19.7116H34.5033V18.1154H30.566V15.934H35.1417V14.2846H28.7038V23.702ZM22.2127 22.3187C20.1377 22.3187 19.18 20.8821 19.18 18.9667C19.18 17.0513 20.1377 15.6679 22.2127 15.6679C24.2877 15.6679 25.2454 17.1045 25.2454 18.9667C25.2454 20.8289 24.2877 22.3187 22.2127 22.3187ZM22.2127 14.0186C19.0735 14.0186 17.2645 16.0404 17.2645 18.9667C17.2645 21.893 19.0735 23.9681 22.2127 23.9681C25.3518 23.9681 27.1608 21.893 27.1608 18.9667C27.1608 16.0404 25.3518 14.0186 22.2127 14.0186ZM36.4187 23.702H38.3873L40.5687 19.9776L42.963 23.702H44.9316L41.7925 18.7539L44.772 14.2846H42.7502L40.6751 17.6366L38.6001 14.2846H36.5783L39.4514 18.7007L36.4187 23.702Z" fill="#213C3E"/>
</svg>
