<svg width="135" height="34" viewBox="0 0 135 34" fill="none" xmlns="http://www.w3.org/2000/svg">
<path d="M16.8585 0C7.59123 0 0 7.49265 0 16.8585C0 26.1257 7.49265 33.7169 16.8585 33.7169C26.1257 33.7169 33.7169 26.2243 33.7169 16.8585C33.7169 7.49265 26.1257 0 16.8585 0ZM16.8585 32.3367C8.28135 32.3367 1.38022 25.4356 1.38022 16.8585C1.38022 8.28135 8.28135 1.38023 16.8585 1.38023C25.4356 1.38023 32.3367 8.28135 32.3367 16.8585C32.4353 25.337 25.4356 32.3367 16.8585 32.3367Z" fill="#9F9F9F"/>
<path d="M16.8579 29.3784C17.4494 29.3784 17.7451 28.984 17.8437 28.4911C17.9423 28.6882 18.1395 28.8854 18.3367 28.984C18.5338 28.984 18.8296 28.984 19.0268 28.8854C19.224 28.7868 19.4211 28.5897 19.5197 28.3925C19.6183 28.1953 19.6183 27.8995 19.5197 27.7024C19.8155 28.0967 20.2098 28.1953 20.7028 27.9981C21.2943 27.7024 21.4915 27.308 21.1957 26.7165C20.5056 25.0405 19.8155 23.4631 19.1254 21.7871C19.0268 21.5899 19.0268 21.4914 18.9282 21.2942C18.8296 21.1956 18.8296 21.097 18.731 20.9984C18.731 20.8998 18.6324 20.8998 18.5338 20.8012C19.6183 20.8998 20.1112 21.2942 20.407 21.4914C20.5056 21.5899 20.5056 21.5899 20.8014 21.4914C20.8999 21.4914 21.0971 21.4914 21.1957 21.4914C21.2943 21.5899 21.4915 21.6885 21.5901 21.6885C21.9844 21.9843 22.3788 22.2801 22.7731 22.5758C22.9703 22.773 23.1675 22.9702 23.1675 23.2659C23.1675 23.4631 22.5759 23.956 22.4773 24.1532C22.083 24.5476 22.6745 25.1391 23.4632 25.1391C23.266 24.9419 23.1675 24.7447 23.266 24.5476C23.3646 24.5476 23.4632 24.5476 23.6604 24.449C23.8576 24.3504 23.759 23.8575 23.8576 23.7589C24.1533 23.4631 24.942 23.4631 25.5336 23.4631C25.7307 23.4631 26.0265 23.3645 25.9279 23.0688C26.2237 23.0688 26.3223 23.3645 26.3223 23.5617C26.618 23.3645 26.8152 22.6744 25.8293 22.4772C26.0265 22.2801 26.3223 22.2801 26.5194 22.4772C26.7166 22.1815 26.2237 21.6885 25.435 21.9843C25.435 21.9843 25.0406 21.4914 24.0547 22.6744C23.9562 22.5758 23.759 22.4772 23.6604 22.3786C23.266 21.9843 22.2802 20.9984 22.2802 20.9984C22.2802 20.4069 22.1816 19.3224 21.4915 18.7309C21.1957 18.4351 20.9 18.3366 20.2098 18.1394C20.2098 18.1394 20.5056 17.6465 20.6042 17.4493C21.1957 18.0408 22.3788 18.238 22.3788 17.2521C23.3646 18.238 24.2519 17.6464 24.2519 17.0549C24.2519 17.3507 24.3505 17.6465 24.4491 17.9422C24.5477 18.238 25.0406 19.5196 26.1251 19.5196C26.1251 19.914 26.1251 21.3928 27.5053 21.6885C27.6039 21.6885 27.6039 21.6885 27.7025 21.7871C28.294 22.4772 30.5615 23.1673 30.7587 22.9702C30.5615 22.8716 30.2658 22.6744 30.2658 21.8857C30.2658 21.3928 30.1672 18.6323 30.1672 14.7874C30.1672 13.4072 30.0686 8.97075 25.6321 8.37923C24.942 8.28064 24.3505 8.37923 23.759 8.77358C22.9703 9.3651 22.5759 10.351 23.0689 11.4354V11.534C23.266 11.8298 23.1675 12.027 22.9703 12.2241C22.5759 12.6185 22.1816 12.8157 21.6887 12.9142C21.3929 12.9142 21.0971 12.8157 20.8999 12.6185C20.407 12.1256 20.1112 11.534 19.9141 10.8439C19.7169 9.56227 20.0127 8.87216 20.0127 8.77358C20.407 8.08346 21.0971 7.49194 21.9844 7.49194C22.3788 6.70324 23.5618 6.999 23.5618 6.999C23.8576 7.09759 23.9562 7.09759 24.0547 7.29476C24.0547 7.29476 24.5477 6.50607 24.0547 6.2103C23.5618 5.91454 22.4773 5.81595 22.4773 5.81595C22.4773 5.32302 21.6886 4.92867 20.1112 5.22443C18.3367 5.52019 17.9423 4.83008 17.9423 4.83008C17.8437 5.71737 18.5339 6.11172 18.731 6.30889C18.0409 7.09759 17.055 8.5764 16.8579 10.6467C16.6607 8.5764 15.6748 7.09759 14.9847 6.30889C15.1819 6.2103 15.872 5.71737 15.7734 4.83008C15.7734 4.83008 15.379 5.52019 13.6045 5.22443C12.1257 4.92867 11.2384 5.32302 11.2384 5.81595C11.2384 5.81595 10.1539 5.91454 9.66097 6.2103C9.16804 6.50607 9.66097 7.29476 9.66097 7.29476C9.75956 7.19618 9.85815 7.09759 10.1539 6.999C10.1539 6.999 11.337 6.70324 11.7313 7.49194C12.6186 7.59052 13.3087 8.08346 13.7031 8.77358C13.7031 8.77358 14.0974 9.46369 13.8017 10.8439C13.7031 11.534 13.3087 12.1256 12.8158 12.6185C12.6186 12.8157 12.3228 13.0128 12.0271 12.9142C11.5341 12.8157 11.1398 12.6185 10.7454 12.2241C10.5483 12.027 10.4497 11.8298 10.6468 11.534V11.4354C11.1398 10.351 10.7454 9.3651 9.95674 8.77358C9.36521 8.37923 8.77369 8.28064 8.08358 8.37923C3.74573 8.97075 3.54855 13.4072 3.54855 14.7874C3.54855 18.6323 3.44997 21.3928 3.44997 21.8857C3.44997 22.6744 3.15421 22.8716 2.95703 22.9702C3.25279 23.1673 5.5203 22.4772 6.01324 21.7871C6.01324 21.7871 6.11183 21.6885 6.21041 21.6885C7.59064 21.3928 7.59064 19.914 7.59064 19.5196C8.6751 19.5196 9.16804 18.238 9.26662 17.9422C9.36521 17.6465 9.4638 17.3507 9.4638 17.0549C9.4638 17.6464 10.3511 18.1394 11.337 17.2521C11.337 18.238 12.52 18.0408 13.1115 17.4493C13.2101 17.6465 13.5059 18.1394 13.5059 18.1394C12.8158 18.238 12.52 18.4351 12.2242 18.7309C11.4355 19.421 11.4356 20.5055 11.4356 20.9984C11.4356 20.9984 10.4497 21.9843 10.0553 22.3786C9.95674 22.4772 9.75956 22.5758 9.66097 22.6744C8.57651 21.4914 8.28075 21.9843 8.28075 21.9843C7.49205 21.6885 7.0977 22.1815 7.19629 22.4772C7.39346 22.2801 7.68923 22.3786 7.8864 22.4772C6.80194 22.6744 7.0977 23.4631 7.39347 23.5617C7.39347 23.3645 7.49205 23.0688 7.78781 23.0688C7.78781 23.3645 7.98499 23.4631 8.18216 23.4631C8.6751 23.4631 9.56239 23.4631 9.85815 23.7589C10.0553 23.8575 9.95674 24.3504 10.0553 24.449C10.1539 24.5476 10.3511 24.5476 10.4497 24.5476C10.4497 24.7447 10.4497 24.8433 10.2525 25.1391C11.0412 25.2377 11.5341 24.5476 11.2384 24.1532C11.0412 23.956 10.5483 23.4631 10.5483 23.2659C10.5483 23.0688 10.7454 22.773 10.9426 22.5758C11.337 22.2801 11.7313 21.9843 12.1257 21.6885C12.2242 21.5899 12.3228 21.4914 12.52 21.4914C12.6186 21.3928 12.8158 21.3928 12.9144 21.4914C13.2101 21.5899 13.2101 21.5899 13.3087 21.4914C13.6045 21.2942 14.0974 20.8998 15.1819 20.8012C15.0833 20.8012 15.0833 20.8998 14.9847 20.9984C14.8861 21.097 14.8861 21.1956 14.7875 21.2942C14.6889 21.3928 14.6889 21.5899 14.5903 21.7871C13.9002 23.4631 13.2101 25.0405 12.52 26.7165C12.3228 27.308 12.52 27.7024 13.0129 27.9981C13.4073 28.1953 13.9002 28.0967 14.196 27.7024C14.0974 27.9981 14.0974 28.1953 14.196 28.3925C14.2946 28.5897 14.4918 28.7868 14.6889 28.8854C14.8861 28.984 15.1819 28.984 15.3791 28.984C15.6748 28.8854 15.7734 28.7868 15.872 28.4911C15.9706 28.984 16.2663 29.3784 16.8579 29.3784Z" fill="#9F9F9F"/>
<path d="M45.2514 10.9423C46.1387 10.9423 48.1105 10.8437 49.1949 10.7451C49.1949 10.9423 49.1949 11.2381 49.1949 11.3366C49.1949 11.4352 49.1949 11.731 49.1949 11.9282C48.2091 11.8296 46.6317 11.731 46.1387 11.731C45.7444 11.731 44.4627 11.731 43.674 11.8296V15.9703H44.5613C46.3359 15.9703 49.885 16.266 49.885 19.3222C49.885 21.7869 47.8147 22.8714 45.1529 22.8714C44.8571 22.8714 43.7726 22.8714 42.9839 22.8714C42.6882 22.8714 42.2938 22.8714 41.998 22.8714C42.0966 20.9982 42.0966 18.5335 42.0966 16.4632C42.0966 14.59 42.0966 11.731 41.998 10.8437C43.0825 10.8437 44.8571 10.9423 45.2514 10.9423ZM43.674 21.8855C44.0684 21.8855 44.6599 21.8855 45.0543 21.8855C47.026 21.8855 48.1105 20.9982 48.1105 19.2236C48.1105 17.3505 46.7303 16.759 43.5755 16.759V21.8855H43.674Z" fill="#9F9F9F"/>
<path d="M51.7575 15.3784C52.4476 14.5897 53.6306 14.1953 54.6165 14.1953C56.3911 14.1953 57.5741 15.0826 57.5741 17.1529V21.2936C57.5741 22.1809 57.7713 22.3781 58.0671 22.3781C58.1657 22.3781 58.3629 22.3781 58.4614 22.2795L58.56 22.6738C58.0671 22.9696 57.5741 22.9696 57.2784 22.9696C56.6869 22.9696 56.3911 22.6738 56.2925 22.2795L56.1939 21.8851C55.3066 22.5752 54.3208 22.9696 53.5321 22.9696C52.0533 22.9696 51.0674 22.1809 51.0674 20.8007C51.0674 19.3219 52.1518 18.6317 53.7292 18.336L55.4052 18.0402C55.9967 17.9416 56.2925 17.7445 56.2925 17.3501C56.2925 15.5755 55.5038 15.0826 54.2222 15.0826C53.2363 15.0826 52.5462 15.3784 51.9547 16.4628H51.7575V15.3784ZM56.2925 18.5332L55.2081 18.7303C54.025 18.9275 52.6448 19.3219 52.6448 20.6035C52.6448 21.5894 53.1377 22.0823 54.2222 22.0823C54.9123 22.0823 55.5038 21.8851 56.1939 21.0964V18.5332H56.2925Z" fill="#9F9F9F"/>
<path d="M60.9254 14.4912C61.1226 14.4912 61.4183 14.4912 61.7141 14.4912C61.6155 15.7728 61.5169 17.8432 61.5169 17.9418C62.207 17.9418 63.1929 18.0404 63.7844 18.0404C64.3759 18.0404 65.3618 18.0404 65.8548 17.9418C65.8548 17.8432 65.8547 15.7728 65.7562 14.4912C66.0519 14.4912 66.4463 14.4912 66.6434 14.4912C66.8406 14.4912 67.1364 14.4912 67.4321 14.4912C67.3336 15.7728 67.235 17.8432 67.235 18.7305C67.235 19.4206 67.235 21.6881 67.4321 22.9697C67.1364 22.9697 66.9392 22.9697 66.6434 22.9697C66.3477 22.9697 66.0519 22.9697 65.7562 22.9697C65.8547 21.6881 65.8548 19.4206 65.8548 18.9276C65.1646 18.8291 64.0802 18.8291 63.7844 18.8291C63.2915 18.8291 62.207 18.8291 61.5169 18.9276C61.5169 19.5192 61.5169 21.6881 61.7141 22.9697C61.4183 22.9697 61.2211 22.9697 60.9254 22.9697C60.6296 22.9697 60.3338 22.9697 60.0381 22.9697C60.1367 21.6881 60.2353 19.4206 60.2353 18.7305C60.2353 17.8432 60.2353 15.7728 60.0381 14.4912C60.3338 14.4912 60.7282 14.4912 60.9254 14.4912Z" fill="#9F9F9F"/>
<path d="M70.4898 14.4921C70.687 14.4921 70.9828 14.4921 71.2785 14.4921C71.18 15.7738 71.1799 17.8441 71.1799 18.1399H71.4757C72.0672 18.1399 74.8277 14.9851 75.1234 14.4921C75.3206 14.4921 75.715 14.4921 75.9121 14.4921C76.1093 14.4921 76.5037 14.4921 76.7008 14.4921L72.7573 18.0413C73.2503 18.6328 75.9121 21.5904 77.0952 22.8721C76.6023 22.8721 76.3065 22.8721 76.1093 22.8721C75.8136 22.8721 75.3206 22.8721 75.0248 22.8721C74.4333 21.8862 72.5602 19.7173 71.4757 18.5342H71.1799C71.1799 19.1258 71.18 21.5904 71.2785 22.8721C71.0814 22.8721 70.7856 22.8721 70.4898 22.8721C70.1941 22.8721 69.8983 22.8721 69.6025 22.8721C69.7011 21.5904 69.7997 19.3229 69.7997 18.6328C69.7997 17.7455 69.7997 15.6752 69.6025 14.3936C69.8983 14.4921 70.1941 14.4921 70.4898 14.4921Z" fill="#9F9F9F"/>
<path d="M84.2912 10.8437C84.8827 10.8437 85.5728 10.7451 86.0658 10.7451C89.122 10.7451 90.305 11.6324 90.305 13.8013C90.305 16.4632 88.0375 17.3505 85.2771 17.3505C85.0799 17.3505 84.4883 17.3505 84.1926 17.2519V20.1109C84.1926 20.8996 84.1926 21.9841 84.2912 22.7728C83.9954 22.7728 83.6996 22.7728 83.4039 22.7728C83.1081 22.7728 82.7138 22.7728 82.5166 22.7728C82.6152 20.8996 82.6152 18.4349 82.6152 16.3646C82.6152 14.4914 82.6152 11.6324 82.5166 10.7451C83.2067 10.7451 83.8968 10.8437 84.2912 10.8437ZM84.9813 16.4632C87.3474 16.4632 88.629 15.5759 88.629 13.8013C88.629 12.1253 87.3474 11.731 85.6714 11.731C85.3756 11.731 84.3898 11.731 84.1926 11.731V16.3646C84.4883 16.4632 84.7841 16.4632 84.9813 16.4632Z" fill="#9F9F9F"/>
<path d="M98.9805 18.6318C98.9805 21.1951 97.3045 23.0682 94.7413 23.0682C92.178 23.0682 90.6006 21.1951 90.6006 18.829C90.6006 16.0685 92.3752 14.2939 94.9384 14.2939C97.4031 14.2939 98.9805 16.0685 98.9805 18.6318ZM92.178 18.7304C92.178 20.6035 92.9667 22.3781 94.7413 22.3781C96.4172 22.3781 97.4031 20.7021 97.4031 18.5332C97.4031 16.7586 96.713 14.8855 94.8398 14.8855C93.0653 14.8855 92.178 16.7586 92.178 18.7304Z" fill="#9F9F9F"/>
<path d="M107.064 16.2667H106.867C106.276 15.2808 105.487 14.9851 104.6 14.9851C102.628 14.9851 101.741 16.8582 101.741 18.7314C101.741 20.8017 102.924 22.4777 104.994 22.4777C105.684 22.4777 106.276 22.3791 107.261 21.2947L107.459 21.4919L107.261 22.2806C106.473 22.7735 105.585 23.0693 104.501 23.0693C101.938 23.0693 100.262 21.2947 100.262 18.7314C100.262 16.0695 102.135 14.3936 104.797 14.3936C105.684 14.3936 106.571 14.5907 107.656 15.0837L107.064 16.2667Z" fill="#9F9F9F"/>
<path d="M115.544 16.2667H115.347C114.755 15.2808 113.966 14.9851 113.079 14.9851C111.107 14.9851 110.22 16.8582 110.22 18.7314C110.22 20.8017 111.403 22.4777 113.473 22.4777C114.163 22.4777 114.755 22.3791 115.741 21.2947L115.839 21.4919L115.642 22.2806C114.854 22.7735 113.966 23.0693 112.882 23.0693C110.319 23.0693 108.643 21.2947 108.643 18.7314C108.643 16.0695 110.516 14.3936 113.178 14.3936C114.065 14.3936 114.952 14.5907 116.037 15.0837L115.544 16.2667Z" fill="#9F9F9F"/>
<path d="M118.009 22.7725C117.91 22.7725 117.614 22.7725 117.516 22.7725C117.614 21.4908 117.713 19.2233 117.713 18.5332C117.713 17.6459 117.713 15.5756 117.516 14.2939C117.811 14.2939 118.206 14.2939 118.403 14.2939C118.6 14.2939 118.896 14.2939 119.192 14.2939C119.093 15.5756 118.994 17.6459 118.994 18.5332C118.994 19.2233 118.994 20.2092 118.994 20.7021C119.882 19.6177 123.135 15.477 123.924 14.3925C124.121 14.3925 124.22 14.3925 124.417 14.3925C124.515 14.3925 124.91 14.3925 125.008 14.3925C124.91 15.6742 124.811 17.7445 124.811 18.6318C124.811 19.3219 124.811 21.5894 125.008 22.8711C124.713 22.8711 124.515 22.8711 124.22 22.8711C123.924 22.8711 123.628 22.8711 123.332 22.8711C123.431 21.5894 123.529 19.3219 123.529 18.6318C123.529 17.7445 123.529 16.66 123.529 16.3643C122.445 17.5473 119.389 21.3922 118.501 22.8711C118.304 22.7725 118.107 22.7725 118.009 22.7725Z" fill="#9F9F9F"/>
<path d="M127.374 22.7725C127.275 22.7725 126.979 22.7725 126.881 22.7725C126.979 21.4908 126.979 19.2233 126.979 18.5332C126.979 17.6459 126.979 15.5756 126.881 14.2939C127.177 14.2939 127.571 14.2939 127.768 14.2939C127.965 14.2939 128.261 14.2939 128.557 14.2939C128.36 15.6742 128.36 17.7445 128.36 18.6318C128.36 19.3219 128.36 20.3078 128.36 20.8007C129.247 19.7163 132.5 15.5756 133.289 14.4911C133.486 14.4911 133.585 14.4911 133.782 14.4911C133.881 14.4911 134.275 14.4911 134.374 14.4911C134.275 15.6742 134.275 17.7445 134.275 18.6318C134.275 19.3219 134.275 21.5894 134.374 22.8711C134.078 22.8711 133.881 22.8711 133.585 22.8711C133.289 22.8711 132.993 22.8711 132.698 22.8711C132.796 21.5894 132.796 19.3219 132.796 18.6318C132.796 17.7445 132.796 16.66 132.796 16.3643C131.712 17.5473 128.655 21.3922 127.768 22.8711C127.67 22.7725 127.571 22.7725 127.374 22.7725Z" fill="#9F9F9F"/>
</svg>
