<svg width="155" height="22" viewBox="0 0 155 22" fill="none" xmlns="http://www.w3.org/2000/svg">
<path d="M0 18.75V1.25H1.625V9.2H12.5V1.25H14.125V18.75H12.5V10.75H1.625V18.75H0Z" fill="#213C3E"/>
<path d="M23.491 12.275H33.966V13.8H23.491V12.275ZM21.941 18.75H20.091L27.716 1.25H29.816L37.441 18.75H35.616L28.791 2.975L21.941 18.75Z" fill="#213C3E"/>
<path d="M44.1375 14.725C43.3375 13.3083 42.9375 11.725 42.9375 9.975C42.9375 8.225 43.3375 6.64167 44.1375 5.225C44.9375 3.80833 46.0208 2.70833 47.3875 1.925C48.7708 1.14167 50.2875 0.750001 51.9375 0.750001C53.7542 0.750001 55.4125 1.23333 56.9125 2.2C58.4125 3.16667 59.5458 4.48333 60.3125 6.15L58.7875 6.75C58.1708 5.4 57.2458 4.33333 56.0125 3.55C54.7792 2.76667 53.4125 2.375 51.9125 2.375C49.8625 2.375 48.1208 3.09167 46.6875 4.525C45.2708 5.95833 44.5625 7.775 44.5625 9.975C44.5625 12.175 45.2708 13.9917 46.6875 15.425C48.1208 16.8583 49.8625 17.575 51.9125 17.575C53.4625 17.575 54.8542 17.1667 56.0875 16.35C57.3375 15.5167 58.2708 14.3833 58.8875 12.95L60.4375 13.55C59.7042 15.2833 58.5708 16.6583 57.0375 17.675C55.5042 18.6917 53.8042 19.2 51.9375 19.2C50.2875 19.2 48.7708 18.8083 47.3875 18.025C46.0208 17.2417 44.9375 16.1417 44.1375 14.725Z" fill="#213C3E"/>
<path d="M65.8955 17.2H83.1955V21.65H81.5705V18.75H67.5205V21.65H65.8955V17.2ZM66.7455 17.2C67.9288 17.2 68.8372 16.8333 69.4705 16.1C70.1205 15.35 70.4455 14.4 70.4455 13.25V1.25H81.3955V18.725H79.7705V2.825H72.0705V13.6C72.0705 14.9 71.5955 16.025 70.6455 16.975C69.7122 17.9083 68.4955 18.375 66.9955 18.375H66.2705L65.8955 17.2H66.7455Z" fill="#213C3E"/>
<path d="M96.7205 18.75V0H98.3455V18.75H96.7205ZM90.2705 9.125C90.2705 10.6917 90.9288 11.9583 92.2455 12.925C93.5622 13.8917 95.3288 14.375 97.5455 14.375C99.7788 14.375 101.554 13.8917 102.871 12.925C104.187 11.9583 104.846 10.6917 104.846 9.125C104.846 7.59167 104.187 6.35 102.871 5.4C101.554 4.45 99.7788 3.975 97.5455 3.975C95.3288 3.975 93.5622 4.45 92.2455 5.4C90.9288 6.35 90.2705 7.59167 90.2705 9.125ZM88.6455 9.125C88.6455 7.125 89.4538 5.50833 91.0705 4.275C92.7038 3.025 94.8622 2.4 97.5455 2.4C100.229 2.4 102.387 3.025 104.021 4.275C105.654 5.50833 106.471 7.125 106.471 9.125C106.471 11.1583 105.654 12.8083 104.021 14.075C102.387 15.325 100.229 15.95 97.5455 15.95C94.8622 15.95 92.7038 15.325 91.0705 14.075C89.4538 12.8083 88.6455 11.1583 88.6455 9.125Z" fill="#213C3E"/>
<path d="M119.671 2.825H114.271V11.05H119.671C121.005 11.05 122.113 10.6583 122.996 9.875C123.896 9.075 124.346 8.08333 124.346 6.9C124.346 5.73333 123.896 4.76667 122.996 4C122.113 3.21667 121.005 2.825 119.671 2.825ZM119.671 12.65H114.271V18.75H112.646V1.25H119.921C121.655 1.25 123.096 1.79167 124.246 2.875C125.396 3.94167 125.971 5.28333 125.971 6.9C125.971 8.5 125.363 9.85833 124.146 10.975C122.93 12.0917 121.438 12.65 119.671 12.65Z" fill="#213C3E"/>
<mask id="mask0_4595_5815" style="mask-type:alpha" maskUnits="userSpaceOnUse" x="133" y="1" width="19" height="19">
<rect x="133" y="1" width="19" height="19" rx="2.82979" fill="#D9D9D9"/>
</mask>
<g mask="url(#mask0_4595_5815)">
<path d="M148.112 4.65314C148.327 4.17665 149.003 4.17665 149.218 4.65314L151.935 10.6855C152.111 11.0769 152.202 11.5013 152.202 11.9306L152.202 20.8085C152.202 21.9248 151.297 22.8298 150.181 22.8298H145.734C145.399 22.8298 145.128 22.5583 145.128 22.2234L145.128 11.9306C145.128 11.5013 145.219 11.0769 145.395 10.6855L148.112 4.65314Z" fill="#00A085"/>
<path d="M149.218 4.01702C149.003 4.49351 148.327 4.49351 148.112 4.01702L145.395 -2.01536C145.219 -2.40677 145.128 -2.83115 145.128 -3.26043L145.128 -12.1383C145.128 -13.2547 146.033 -14.1596 147.149 -14.1596L151.596 -14.1596C151.931 -14.1596 152.202 -13.8881 152.202 -13.5532L152.202 -3.26043C152.202 -2.83115 152.111 -2.40676 151.935 -2.01535L149.218 4.01702Z" fill="#00A085"/>
<path d="M148.347 3.78222C148.824 3.99682 148.824 4.6734 148.347 4.88801L142.315 7.60489C141.923 7.78118 141.499 7.87234 141.07 7.87234L132.192 7.87235C131.075 7.87235 130.17 6.96739 130.17 5.85107L130.17 1.40428C130.17 1.06938 130.442 0.797893 130.777 0.797893L141.07 0.797882C141.499 0.797882 141.923 0.889041 142.315 1.06533L148.347 3.78222Z" fill="#00A085"/>
<path d="M148.983 4.88801C148.506 4.6734 148.506 3.99682 148.983 3.78222L155.015 1.06533C155.407 0.889049 155.831 0.79789 156.26 0.797889L165.138 0.797881C166.255 0.79788 167.16 1.70284 167.16 2.81916L167.16 7.26595C167.16 7.60085 166.888 7.87234 166.553 7.87234L156.26 7.87235C155.831 7.87235 155.407 7.78119 155.015 7.6049L148.983 4.88801Z" fill="#00A085"/>
<path d="M148.049 4.16903C148.538 3.98385 149.016 4.46226 148.831 4.95094L146.487 11.1376C146.335 11.539 146.099 11.9036 145.796 12.2071L139.518 18.4848C138.729 19.2741 137.449 19.2741 136.659 18.4848L133.515 15.3404C133.278 15.1036 133.278 14.7197 133.515 14.4828L140.793 7.20472C141.097 6.90117 141.461 6.66555 141.863 6.51343L148.049 4.16903Z" fill="#00A085"/>
<path d="M149.281 4.50117C148.793 4.68635 148.314 4.20794 148.499 3.71926L150.844 -2.46741C150.996 -2.86883 151.231 -3.23337 151.535 -3.53692L157.813 -9.81456C158.602 -10.6039 159.882 -10.6039 160.671 -9.81456L163.816 -6.6702C164.052 -6.4334 164.052 -6.04946 163.816 -5.81265L156.537 1.46548C156.234 1.76902 155.869 2.00465 155.468 2.15677L149.281 4.50117Z" fill="#00A085"/>
<path d="M148.831 3.71925C149.016 4.20793 148.538 4.68634 148.049 4.50116L141.863 2.15675C141.461 2.00463 141.097 1.76901 140.793 1.46546L134.516 -4.81217C133.726 -5.60152 133.726 -6.88133 134.516 -7.67069L137.66 -10.815C137.897 -11.0519 138.281 -11.0519 138.517 -10.815L145.796 -3.53693C146.099 -3.23339 146.335 -2.86884 146.487 -2.46742L148.831 3.71925Z" fill="#00A085"/>
<path d="M148.499 4.95089C148.314 4.46221 148.793 3.9838 149.281 4.16898L155.468 6.51338C155.869 6.6655 156.234 6.90113 156.537 7.20467L162.815 13.4823C163.604 14.2717 163.604 15.5515 162.815 16.3408L159.671 19.4852C159.434 19.722 159.05 19.722 158.813 19.4852L151.535 12.2071C151.231 11.9035 150.996 11.539 150.844 11.1376L148.499 4.95089Z" fill="#00A085"/>
<path d="M148.049 4.16903C148.538 3.98385 149.016 4.46226 148.831 4.95094L146.487 11.1376C146.335 11.539 146.099 11.9036 145.796 12.2071L139.518 18.4848C138.729 19.2741 137.449 19.2741 136.659 18.4848L133.515 15.3404C133.278 15.1036 133.278 14.7197 133.515 14.4828L140.793 7.20472C141.097 6.90117 141.461 6.66555 141.863 6.51343L148.049 4.16903Z" fill="#057562"/>
</g>
</svg>
