<svg width="155" height="22" viewBox="0 0 155 22" fill="none" xmlns="http://www.w3.org/2000/svg">
<path d="M0 18.75V1.25H1.625V9.2H12.5V1.25H14.125V18.75H12.5V10.75H1.625V18.75H0Z" fill="white"/>
<path d="M23.491 12.275H33.966V13.8H23.491V12.275ZM21.941 18.75H20.091L27.716 1.25H29.816L37.441 18.75H35.616L28.791 2.975L21.941 18.75Z" fill="white"/>
<path d="M44.1375 14.725C43.3375 13.3083 42.9375 11.725 42.9375 9.975C42.9375 8.225 43.3375 6.64167 44.1375 5.225C44.9375 3.80833 46.0208 2.70833 47.3875 1.925C48.7708 1.14167 50.2875 0.750001 51.9375 0.750001C53.7542 0.750001 55.4125 1.23333 56.9125 2.2C58.4125 3.16667 59.5458 4.48333 60.3125 6.15L58.7875 6.75C58.1708 5.4 57.2458 4.33333 56.0125 3.55C54.7792 2.76667 53.4125 2.375 51.9125 2.375C49.8625 2.375 48.1208 3.09167 46.6875 4.525C45.2708 5.95833 44.5625 7.775 44.5625 9.975C44.5625 12.175 45.2708 13.9917 46.6875 15.425C48.1208 16.8583 49.8625 17.575 51.9125 17.575C53.4625 17.575 54.8542 17.1667 56.0875 16.35C57.3375 15.5167 58.2708 14.3833 58.8875 12.95L60.4375 13.55C59.7042 15.2833 58.5708 16.6583 57.0375 17.675C55.5042 18.6917 53.8042 19.2 51.9375 19.2C50.2875 19.2 48.7708 18.8083 47.3875 18.025C46.0208 17.2417 44.9375 16.1417 44.1375 14.725Z" fill="white"/>
<path d="M65.8955 17.2H83.1955V21.65H81.5705V18.75H67.5205V21.65H65.8955V17.2ZM66.7455 17.2C67.9288 17.2 68.8372 16.8333 69.4705 16.1C70.1205 15.35 70.4455 14.4 70.4455 13.25V1.25H81.3955V18.725H79.7705V2.825H72.0705V13.6C72.0705 14.9 71.5955 16.025 70.6455 16.975C69.7122 17.9083 68.4955 18.375 66.9955 18.375H66.2705L65.8955 17.2H66.7455Z" fill="white"/>
<path d="M96.7205 18.75V0H98.3455V18.75H96.7205ZM90.2705 9.125C90.2705 10.6917 90.9288 11.9583 92.2455 12.925C93.5622 13.8917 95.3288 14.375 97.5455 14.375C99.7788 14.375 101.554 13.8917 102.871 12.925C104.187 11.9583 104.846 10.6917 104.846 9.125C104.846 7.59167 104.187 6.35 102.871 5.4C101.554 4.45 99.7788 3.975 97.5455 3.975C95.3288 3.975 93.5622 4.45 92.2455 5.4C90.9288 6.35 90.2705 7.59167 90.2705 9.125ZM88.6455 9.125C88.6455 7.125 89.4538 5.50833 91.0705 4.275C92.7038 3.025 94.8622 2.4 97.5455 2.4C100.229 2.4 102.387 3.025 104.021 4.275C105.654 5.50833 106.471 7.125 106.471 9.125C106.471 11.1583 105.654 12.8083 104.021 14.075C102.387 15.325 100.229 15.95 97.5455 15.95C94.8622 15.95 92.7038 15.325 91.0705 14.075C89.4538 12.8083 88.6455 11.1583 88.6455 9.125Z" fill="white"/>
<path d="M119.671 2.825H114.271V11.05H119.671C121.005 11.05 122.113 10.6583 122.996 9.875C123.896 9.075 124.346 8.08333 124.346 6.9C124.346 5.73333 123.896 4.76667 122.996 4C122.113 3.21667 121.005 2.825 119.671 2.825ZM119.671 12.65H114.271V18.75H112.646V1.25H119.921C121.655 1.25 123.096 1.79167 124.246 2.875C125.396 3.94167 125.971 5.28333 125.971 6.9C125.971 8.5 125.363 9.85833 124.146 10.975C122.93 12.0917 121.438 12.65 119.671 12.65Z" fill="white"/>
<mask id="mask0_4605_2685" style="mask-type:alpha" maskUnits="userSpaceOnUse" x="133" y="1" width="19" height="19">
<rect x="133" y="1" width="19" height="19" rx="2.82979" fill="#D9D9D9"/>
</mask>
<g mask="url(#mask0_4605_2685)">
<path d="M148.112 4.6529C148.327 4.17641 149.003 4.17641 149.218 4.6529L151.935 10.6853C152.111 11.0767 152.202 11.5011 152.202 11.9303L152.202 20.8083C152.202 21.9246 151.297 22.8295 150.181 22.8295H145.734C145.399 22.8295 145.128 22.5581 145.128 22.2232L145.128 11.9304C145.128 11.5011 145.219 11.0767 145.395 10.6853L148.112 4.6529Z" fill="#00A085"/>
<path d="M149.218 4.01702C149.003 4.49351 148.327 4.49351 148.112 4.01702L145.395 -2.01536C145.219 -2.40677 145.128 -2.83115 145.128 -3.26043L145.128 -12.1383C145.128 -13.2547 146.033 -14.1596 147.149 -14.1596L151.596 -14.1596C151.931 -14.1596 152.202 -13.8881 152.202 -13.5532L152.202 -3.26043C152.202 -2.83115 152.111 -2.40676 151.935 -2.01535L149.218 4.01702Z" fill="#00A085"/>
<path d="M148.347 3.78219C148.824 3.99679 148.824 4.67337 148.347 4.88798L142.315 7.60486C141.923 7.78115 141.499 7.87231 141.07 7.87231L132.192 7.87232C131.075 7.87232 130.17 6.96736 130.17 5.85104L130.17 1.40424C130.17 1.06935 130.442 0.797862 130.777 0.797862L141.07 0.797852C141.499 0.797851 141.923 0.88901 142.315 1.0653L148.347 3.78219Z" fill="#00A085"/>
<path d="M148.983 4.88773C148.506 4.67313 148.506 3.99655 148.983 3.78194L155.015 1.06506C155.407 0.888774 155.831 0.797615 156.26 0.797615L165.138 0.797606C166.255 0.797606 167.16 1.70256 167.16 2.81888L167.16 7.26568C167.16 7.60057 166.888 7.87206 166.553 7.87206L156.26 7.87207C155.831 7.87207 155.407 7.78091 155.015 7.60463L148.983 4.88773Z" fill="#00A085"/>
<path d="M148.049 4.16921C148.538 3.98403 149.016 4.46244 148.831 4.95112L146.487 11.1378C146.335 11.5392 146.099 11.9038 145.796 12.2073L139.518 18.4849C138.729 19.2743 137.449 19.2743 136.659 18.4849L133.515 15.3406C133.278 15.1038 133.278 14.7198 133.515 14.483L140.793 7.2049C141.097 6.90136 141.461 6.66573 141.863 6.51361L148.049 4.16921Z" fill="#00A085"/>
<path d="M149.281 4.5012C148.793 4.68638 148.314 4.20797 148.499 3.71929L150.844 -2.46738C150.996 -2.8688 151.231 -3.23334 151.535 -3.53689L157.813 -9.81453C158.602 -10.6039 159.882 -10.6039 160.671 -9.81453L163.816 -6.67017C164.052 -6.43336 164.052 -6.04943 163.816 -5.81262L156.537 1.46551C156.234 1.76905 155.869 2.00468 155.468 2.1568L149.281 4.5012Z" fill="#00A085"/>
<path d="M148.831 3.71925C149.016 4.20793 148.538 4.68634 148.049 4.50116L141.863 2.15675C141.461 2.00463 141.097 1.76901 140.793 1.46546L134.516 -4.81217C133.726 -5.60152 133.726 -6.88133 134.516 -7.67069L137.66 -10.815C137.897 -11.0519 138.281 -11.0519 138.517 -10.815L145.796 -3.53693C146.099 -3.23339 146.335 -2.86884 146.487 -2.46742L148.831 3.71925Z" fill="#00A085"/>
<path d="M148.499 4.95067C148.314 4.462 148.793 3.98358 149.281 4.16876L155.468 6.51317C155.869 6.66529 156.234 6.90091 156.537 7.20446L162.815 13.4821C163.604 14.2714 163.604 15.5513 162.815 16.3406L159.671 19.485C159.434 19.7218 159.05 19.7218 158.813 19.485L151.535 12.2069C151.231 11.9033 150.996 11.5388 150.844 11.1373L148.499 4.95067Z" fill="#00A085"/>
<path d="M148.049 4.16921C148.538 3.98403 149.016 4.46244 148.831 4.95112L146.487 11.1378C146.335 11.5392 146.099 11.9038 145.796 12.2073L139.518 18.4849C138.729 19.2743 137.449 19.2743 136.659 18.4849L133.515 15.3406C133.278 15.1038 133.278 14.7198 133.515 14.483L140.793 7.2049C141.097 6.90136 141.461 6.66573 141.863 6.51361L148.049 4.16921Z" fill="#057562"/>
</g>
</svg>
