<svg width="164" height="164" viewBox="0 0 164 164" fill="none" xmlns="http://www.w3.org/2000/svg">
<g opacity="0.8">
<path d="M119.862 97.1831H118.655L119.509 98.0366L144.382 122.91C147.686 126.214 147.686 131.572 144.382 134.877L130.441 148.818C129.586 149.672 128.2 149.672 127.346 148.818L98.0366 119.509L97.183 118.655V119.862L97.1831 155.038C97.1831 159.712 93.3946 163.5 88.7213 163.5H69.0055C67.7968 163.5 66.817 162.52 66.817 161.311L66.817 119.862V118.655L65.9634 119.509L41.0902 144.382C37.7857 147.686 32.428 147.686 29.1235 144.382L15.1823 130.441L14.8288 130.794L15.1823 130.441C14.3276 129.586 14.3276 128.2 15.1823 127.346L44.4914 98.0366L45.3449 97.183H44.1378L8.96175 97.1831C4.28845 97.1831 0.5 93.3946 0.5 88.7213V69.0055C0.5 67.7968 1.47983 66.817 2.68852 66.817L44.1378 66.817H45.3449L44.4914 65.9634L19.6181 41.0902C16.3136 37.7857 16.3136 32.428 19.6181 29.1235L33.5593 15.1823C34.414 14.3276 35.7997 14.3276 36.6543 15.1823L65.9634 44.4914L66.817 45.3449V44.1378L66.817 8.96175C66.817 4.28845 70.6054 0.5 75.2787 0.5L94.9945 0.500002C96.2032 0.500002 97.183 1.47984 97.183 2.68852L97.1831 44.1378V45.3449L98.0366 44.4914L122.91 19.6181C126.214 16.3136 131.572 16.3136 134.877 19.6181L148.818 33.5593C149.672 34.414 149.672 35.7997 148.818 36.6543L119.509 65.9634L118.655 66.817H119.862L155.038 66.817C159.712 66.817 163.5 70.6054 163.5 75.2787V94.9945C163.5 96.2032 162.52 97.183 161.311 97.183L119.862 97.1831Z" stroke="#00A085"/>
<path d="M79.2697 81.2637C81.4364 80.4426 83.5576 82.5638 82.7365 84.7304L72.3421 112.16C71.6677 113.94 70.623 115.556 69.2771 116.902L41.444 144.735C37.9442 148.235 32.2699 148.235 28.7701 144.735L14.8289 130.794C13.779 129.744 13.779 128.042 14.8289 126.992L47.098 94.7231C48.4438 93.3772 50.0601 92.3325 51.8399 91.6581L79.2697 81.2637Z" fill="#057562"/>
</g>
</svg>
